<svg width="1108" height="319" viewBox="0 0 1108 319" fill="none" xmlns="http://www.w3.org/2000/svg">
<path fill-rule="evenodd" clip-rule="evenodd" d="M0 0V285.954C24.16 301.841 52.5825 311 83 311C126.768 311 166.405 292.037 195.157 261.354C216.28 272.639 240.184 279 265.5 279C289.977 279 313.132 273.054 333.732 262.46C362.838 297.171 405.042 319 452 319C495.85 319 535.554 299.965 564.318 269.181C569.477 269.723 574.708 270 580 270C607.408 270 633.197 262.564 655.706 249.47C684.872 287.066 728.829 311 778 311C839.753 311 893.284 273.249 919.618 218.095C929.14 220.002 938.961 221 949 221C1036.81 221 1108 144.665 1108 50.5C1108 32.9182 1105.52 15.9579 1100.91 0H155.439H0Z" fill="#00A2E1"/>
</svg>
