<svg width="560" height="250" viewBox="0 0 560 250" fill="none" xmlns="http://www.w3.org/2000/svg">
<path fill-rule="evenodd" clip-rule="evenodd" d="M0 0V118V127V236.215C11.2967 244.957 24.6013 250 38.8438 250C58.2613 250 75.9357 240.626 89.1551 225.285C98.4055 229.598 108.68 232 119.5 232C127.634 232 135.459 230.643 142.773 228.137C156.054 241.653 174.328 250 194.5 250C219.496 250 241.579 237.182 254.857 217.597C257.369 217.863 259.919 218 262.5 218C276.803 218 290.151 213.804 301.442 206.544C314.636 226.722 337.058 240 362.5 240C396.736 240 425.505 215.955 433.676 183.409C439.632 184.455 445.754 185 452 185C511.647 185 560 135.304 560 74C560 45.5709 549.601 19.638 532.5 0H371.5H0Z" fill="#00A2E1"/>
</svg>
